<svg width="67" height="67" viewBox="0 0 67 67" fill="none" xmlns="http://www.w3.org/2000/svg">
<path d="M1.46447 58.0328C-0.488155 59.9854 -0.488155 63.1513 1.46447 65.1039C3.41709 67.0565 6.58291 67.0565 8.53553 65.1039L1.46447 58.0328ZM66.5685 4.99982C66.5685 2.2384 64.33 -0.000179368 61.5685 -0.000184762L16.5685 -0.000182065C13.8071 -0.000182065 11.5685 2.23839 11.5685 4.99982C11.5685 7.76124 13.8071 9.99982 16.5685 9.99982H56.5685V49.9998C56.5685 52.7612 58.8071 54.9998 61.5685 54.9998C64.33 54.9998 66.5685 52.7612 66.5685 49.9998L66.5685 4.99982ZM8.53553 65.1039L65.1041 8.53535L58.033 1.46428L1.46447 58.0328L8.53553 65.1039Z" fill="white"/>
</svg>
