<svg width="3840" height="762" viewBox="0 0 3840 762" fill="none" xmlns="http://www.w3.org/2000/svg">
<path d="M50.02 599V16.8H449.36V156.2H209.92V252.96H405.08V382.52H209.92V599H50.02ZM491.705 451.4V167.68H647.505V416.14C647.505 434.727 651.605 449.487 659.805 460.42C668.552 470.807 680.305 476 695.065 476C703.265 476 711.465 474.907 719.665 472.72C727.865 470.533 736.065 466.16 744.265 459.6C753.012 453.04 761.485 443.747 769.685 431.72V167.68H925.485V426.8C925.485 441.56 927.672 451.947 932.045 457.96C936.419 463.427 944.072 466.707 955.005 467.8V599C941.339 601.733 929.039 603.647 918.105 604.74C907.172 606.38 897.605 607.2 889.405 607.2C863.165 607.2 842.392 602.28 827.085 592.44C811.779 582.6 801.939 567.567 797.565 547.34L794.285 531.76C774.059 558.547 749.732 577.953 721.305 589.98C693.425 601.46 661.719 607.2 626.185 607.2C582.999 607.2 549.652 593.807 526.145 567.02C503.185 540.233 491.705 501.693 491.705 451.4ZM1015.44 0.399984H1171.24V427.62C1171.24 443.473 1174.52 455.773 1181.08 464.52C1188.18 472.72 1198.3 476.82 1211.42 476.82C1217.98 476.82 1225.08 475.727 1232.74 473.54C1240.39 471.353 1247.5 468.347 1254.06 464.52L1273.74 579.32C1255.15 588.067 1234.1 594.9 1210.6 599.82C1187.64 604.74 1165.77 607.2 1145 607.2C1103.45 607.2 1071.47 596.54 1049.06 575.22C1026.64 553.353 1015.44 522.467 1015.44 482.56V0.399984ZM1306.92 0.399984H1462.72V427.62C1462.72 443.473 1466 455.773 1472.56 464.52C1479.67 472.72 1489.78 476.82 1502.9 476.82C1509.46 476.82 1516.57 475.727 1524.22 473.54C1531.87 471.353 1538.98 468.347 1545.54 464.52L1565.22 579.32C1546.63 588.067 1525.59 594.9 1502.08 599.82C1479.12 604.74 1457.25 607.2 1436.48 607.2C1394.93 607.2 1362.95 596.54 1340.54 575.22C1318.13 553.353 1306.92 522.467 1306.92 482.56V0.399984ZM1774.7 607.2C1736.98 607.2 1699.81 601.187 1663.18 589.16C1627.1 576.587 1596.49 558.547 1571.34 535.04L1624.64 439.1C1651.43 456.593 1677.12 470.26 1701.72 480.1C1726.87 489.94 1749.56 494.86 1769.78 494.86C1781.26 494.86 1789.74 493.493 1795.2 490.76C1800.67 487.48 1803.4 482.287 1803.4 475.18C1803.4 470.26 1801.49 466.16 1797.66 462.88C1793.84 459.6 1787.55 456.32 1778.8 453.04C1770.6 449.76 1759.94 446.207 1746.82 442.38C1712.93 430.353 1684.5 419.147 1661.54 408.76C1639.13 398.373 1622.18 385.8 1610.7 371.04C1599.77 355.733 1594.3 335.507 1594.3 310.36C1594.3 280.84 1601.68 254.873 1616.44 232.46C1631.2 209.5 1652.25 191.46 1679.58 178.34C1707.46 165.22 1740.81 158.66 1779.62 158.66C1808.6 158.66 1837.57 163.307 1866.54 172.6C1896.06 181.347 1924.49 197.473 1951.82 220.98L1892.78 316.1C1865.45 299.153 1842.22 287.127 1823.08 280.02C1804.5 272.913 1787.82 269.36 1773.06 269.36C1765.96 269.36 1759.67 270.18 1754.2 271.82C1749.28 273.46 1745.46 275.92 1742.72 279.2C1739.99 282.48 1738.62 286.853 1738.62 292.32C1738.62 297.787 1740.54 302.433 1744.36 306.26C1748.19 309.54 1754.2 312.82 1762.4 316.1C1770.6 318.833 1780.99 322.113 1793.56 325.94C1830.74 336.873 1861.08 348.08 1884.58 359.56C1908.09 370.493 1925.31 383.887 1936.24 399.74C1947.72 415.593 1953.46 436.367 1953.46 462.06C1953.46 507.433 1937.34 542.967 1905.08 568.66C1873.38 594.353 1829.92 607.2 1774.7 607.2ZM2310.26 575.22C2296.05 581.233 2280.74 586.973 2264.34 592.44C2248.49 597.36 2232.09 601.187 2215.14 603.92C2198.74 606.653 2182.61 608.02 2166.76 608.02C2143.25 608.02 2121.66 604.193 2101.98 596.54C2082.3 588.34 2066.45 575.22 2054.42 557.18C2042.94 538.593 2037.2 513.72 2037.2 482.56V284.94H1983.9V167.68H2037.2V32.38H2193V167.68H2277.46V284.94H2193V427.62C2193 441.833 2196.01 451.947 2202.02 457.96C2208.03 463.427 2216.23 466.16 2226.62 466.16C2234.27 466.16 2243.02 464.793 2252.86 462.06C2262.7 459.327 2272.54 456.047 2282.38 452.22L2310.26 575.22ZM2330.64 468.62C2330.64 439.647 2338.57 414.227 2354.42 392.36C2370.27 369.947 2392.14 352.453 2420.02 339.88C2448.45 327.307 2480.7 321.02 2516.78 321.02C2533.73 321.02 2549.58 322.387 2564.34 325.12C2579.65 327.853 2592.77 331.953 2603.7 337.42V324.3C2603.7 304.073 2597.69 289.04 2585.66 279.2C2574.18 269.36 2555.32 264.44 2529.08 264.44C2505.03 264.44 2482.34 268.54 2461.02 276.74C2440.25 284.393 2418.38 295.873 2395.42 311.18L2350.32 214.42C2379.29 195.833 2409.63 182.167 2441.34 173.42C2473.59 164.127 2508.03 159.48 2544.66 159.48C2612.99 159.48 2665.75 175.06 2702.92 206.22C2740.64 236.833 2759.5 282.48 2759.5 343.16V426.8C2759.5 441.56 2761.69 451.947 2766.06 457.96C2770.43 463.427 2778.09 466.707 2789.02 467.8V599C2776.45 601.733 2764.42 603.647 2752.94 604.74C2742.01 606.38 2732.17 607.2 2723.42 607.2C2695.54 607.2 2674.22 602.28 2659.46 592.44C2645.25 582.053 2635.95 567.02 2631.58 547.34L2628.3 531.76C2609.17 556.36 2587.03 575.22 2561.88 588.34C2536.73 600.913 2509.95 607.2 2481.52 607.2C2453.09 607.2 2427.4 601.187 2404.44 589.16C2381.48 577.133 2363.44 560.733 2350.32 539.96C2337.2 518.64 2330.64 494.86 2330.64 468.62ZM2583.2 479.28C2589.21 474.907 2594.13 470.26 2597.96 465.34C2601.79 459.873 2603.7 454.407 2603.7 448.94V416.96C2594.95 413.68 2584.84 410.947 2573.36 408.76C2562.43 406.573 2552.59 405.48 2543.84 405.48C2525.25 405.48 2509.4 410.127 2496.28 419.42C2483.71 428.713 2477.42 440.467 2477.42 454.68C2477.42 462.333 2479.61 469.44 2483.98 476C2488.35 482.013 2494.37 486.933 2502.02 490.76C2509.67 494.04 2518.42 495.68 2528.26 495.68C2537.55 495.68 2547.12 494.313 2556.96 491.58C2567.35 488.3 2576.09 484.2 2583.2 479.28ZM3058.5 607.2C3020.23 607.2 2986.34 601.187 2956.82 589.16C2927.84 577.133 2903.24 560.733 2883.02 539.96C2862.79 518.64 2847.48 494.587 2837.1 467.8C2826.71 441.013 2821.52 412.86 2821.52 383.34C2821.52 343.98 2830.54 307.353 2848.58 273.46C2867.16 239.02 2893.95 211.413 2928.94 190.64C2964.47 169.867 3007.66 159.48 3058.5 159.48C3110.43 159.48 3154.16 170.413 3189.7 192.28C3225.23 214.147 3251.74 242.3 3269.24 276.74L3117.54 322.66C3110.43 312.273 3101.68 304.347 3091.3 298.88C3081.46 293.413 3070.25 290.68 3057.68 290.68C3043.46 290.68 3030.62 294.507 3019.14 302.16C3007.66 309.267 2998.36 319.653 2991.26 333.32C2984.7 346.987 2981.42 363.66 2981.42 383.34C2981.42 402.473 2984.7 419.147 2991.26 433.36C2998.36 447.027 3007.66 457.687 3019.14 465.34C3030.62 472.447 3043.46 476 3057.68 476C3066.42 476 3074.35 474.907 3081.46 472.72C3088.56 469.987 3095.12 466.16 3101.14 461.24C3107.7 456.32 3113.16 450.58 3117.54 444.02L3269.24 489.94C3257.76 512.9 3241.9 533.127 3221.68 550.62C3202 568.113 3178.49 582.053 3151.16 592.44C3124.37 602.28 3093.48 607.2 3058.5 607.2ZM3603.1 599L3505.52 441.56L3474.36 476V599H3318.56V0.399984H3474.36V327.58L3589.16 167.68H3753.16L3604.74 356.28L3767.92 599H3603.1Z" fill="black"/>
<rect x="2555" y="525" width="1234" height="124" rx="62" fill="#FF3333"/>
<path d="M2598.5 643.25C2598.5 631.083 2601.08 619.917 2606.25 609.75C2611.42 599.583 2618.5 591.417 2627.5 585.25C2636.5 578.917 2646.75 575.75 2658.25 575.75C2669.58 575.75 2679.58 578.75 2688.25 584.75C2697.08 590.75 2704 597.917 2709 606.25V525.5H2721.5V691.5C2721.5 693.5 2721.92 695 2722.75 696C2723.75 697 2725.08 697.583 2726.75 697.75V708C2724.08 708.333 2722.08 708.417 2720.75 708.25C2717.75 707.75 2715.25 706.333 2713.25 704C2711.25 701.667 2710.25 699.167 2710.25 696.5V682C2704.92 690.667 2697.75 697.583 2688.75 702.75C2679.75 707.917 2670.5 710.5 2661 710.5C2652 710.5 2643.67 708.667 2636 705C2628.33 701.167 2621.67 696.083 2616 689.75C2610.5 683.417 2606.17 676.25 2603 668.25C2600 660.25 2598.5 651.917 2598.5 643.25ZM2709 664.25V621.5C2706.67 615.167 2702.92 609.417 2697.75 604.25C2692.58 598.917 2686.75 594.75 2680.25 591.75C2673.75 588.583 2667.33 587 2661 587C2653.5 587 2646.67 588.583 2640.5 591.75C2634.5 594.917 2629.25 599.167 2624.75 604.5C2620.42 609.833 2617.08 615.917 2614.75 622.75C2612.42 629.417 2611.25 636.333 2611.25 643.5C2611.25 650.833 2612.58 657.917 2615.25 664.75C2617.92 671.417 2621.58 677.417 2626.25 682.75C2631.08 687.917 2636.58 692 2642.75 695C2649.08 697.833 2655.92 699.25 2663.25 699.25C2667.75 699.25 2672.5 698.333 2677.5 696.5C2682.67 694.667 2687.5 692.167 2692 689C2696.67 685.667 2700.5 681.917 2703.5 677.75C2706.67 673.417 2708.5 668.917 2709 664.25ZM2816.56 710.5C2807.39 710.5 2798.89 708.75 2791.06 705.25C2783.23 701.583 2776.39 696.667 2770.56 690.5C2764.89 684.167 2760.39 676.917 2757.06 668.75C2753.89 660.417 2752.31 651.667 2752.31 642.5C2752.31 630.167 2755.06 619 2760.56 609C2766.06 599 2773.64 591 2783.31 585C2792.98 578.833 2803.81 575.75 2815.81 575.75C2828.14 575.75 2839.06 578.833 2848.56 585C2858.06 591.167 2865.56 599.333 2871.06 609.5C2876.73 619.5 2879.56 630.5 2879.56 642.5C2879.56 643.5 2879.56 644.5 2879.56 645.5C2879.56 646.5 2879.48 647.333 2879.31 648H2765.31C2765.98 657.833 2768.73 666.75 2773.56 674.75C2778.39 682.75 2784.56 689.083 2792.06 693.75C2799.73 698.25 2808.06 700.5 2817.06 700.5C2826.06 700.5 2834.56 698.167 2842.56 693.5C2850.56 688.833 2856.14 682.833 2859.31 675.5L2870.31 678.5C2867.81 684.667 2863.81 690.167 2858.31 695C2852.98 699.833 2846.64 703.667 2839.31 706.5C2832.14 709.167 2824.56 710.5 2816.56 710.5ZM2764.81 638.25H2867.56C2866.89 628.083 2864.23 619.083 2859.56 611.25C2854.89 603.417 2848.73 597.25 2841.06 592.75C2833.56 588.25 2825.23 586 2816.06 586C2806.89 586 2798.56 588.25 2791.06 592.75C2783.56 597.25 2777.48 603.417 2772.81 611.25C2768.14 619.083 2765.48 628.083 2764.81 638.25ZM2943.64 708L2889.39 578H2902.64L2950.39 694.75L2998.39 578H3010.89L2956.64 708H2943.64ZM3086.58 710.5C3077.41 710.5 3068.91 708.75 3061.08 705.25C3053.24 701.583 3046.41 696.667 3040.58 690.5C3034.91 684.167 3030.41 676.917 3027.08 668.75C3023.91 660.417 3022.33 651.667 3022.33 642.5C3022.33 630.167 3025.08 619 3030.58 609C3036.08 599 3043.66 591 3053.33 585C3062.99 578.833 3073.83 575.75 3085.83 575.75C3098.16 575.75 3109.08 578.833 3118.58 585C3128.08 591.167 3135.58 599.333 3141.08 609.5C3146.74 619.5 3149.58 630.5 3149.58 642.5C3149.58 643.5 3149.58 644.5 3149.58 645.5C3149.58 646.5 3149.49 647.333 3149.33 648H3035.33C3035.99 657.833 3038.74 666.75 3043.58 674.75C3048.41 682.75 3054.58 689.083 3062.08 693.75C3069.74 698.25 3078.08 700.5 3087.08 700.5C3096.08 700.5 3104.58 698.167 3112.58 693.5C3120.58 688.833 3126.16 682.833 3129.33 675.5L3140.33 678.5C3137.83 684.667 3133.83 690.167 3128.33 695C3122.99 699.833 3116.66 703.667 3109.33 706.5C3102.16 709.167 3094.58 710.5 3086.58 710.5ZM3034.83 638.25H3137.58C3136.91 628.083 3134.24 619.083 3129.58 611.25C3124.91 603.417 3118.74 597.25 3111.08 592.75C3103.58 588.25 3095.24 586 3086.08 586C3076.91 586 3068.58 588.25 3061.08 592.75C3053.58 597.25 3047.49 603.417 3042.83 611.25C3038.16 619.083 3035.49 628.083 3034.83 638.25ZM3178.08 525.5H3190.83V682.25C3190.83 688.25 3192.08 692.417 3194.58 694.75C3197.08 696.917 3200.33 698 3204.33 698C3207 698 3209.75 697.75 3212.58 697.25C3215.41 696.75 3217.91 696.083 3220.08 695.25L3222.58 705.5C3219.75 706.5 3216.25 707.417 3212.08 708.25C3207.91 709.083 3204.33 709.5 3201.33 709.5C3194.33 709.5 3188.66 707.417 3184.33 703.25C3180.16 698.917 3178.08 693.167 3178.08 686V525.5ZM3296.28 710.5C3287.11 710.5 3278.61 708.75 3270.78 705.25C3263.11 701.75 3256.44 696.917 3250.78 690.75C3245.11 684.417 3240.69 677.167 3237.53 669C3234.36 660.833 3232.78 652.25 3232.78 643.25C3232.78 634.083 3234.36 625.5 3237.53 617.5C3240.69 609.333 3245.11 602.167 3250.78 596C3256.61 589.667 3263.36 584.75 3271.03 581.25C3278.86 577.583 3287.28 575.75 3296.28 575.75C3305.28 575.75 3313.61 577.583 3321.28 581.25C3328.94 584.75 3335.69 589.667 3341.53 596C3347.36 602.167 3351.86 609.333 3355.03 617.5C3358.19 625.5 3359.78 634.083 3359.78 643.25C3359.78 652.25 3358.19 660.833 3355.03 669C3351.86 677.167 3347.36 684.417 3341.53 690.75C3335.86 696.917 3329.11 701.75 3321.28 705.25C3313.61 708.75 3305.28 710.5 3296.28 710.5ZM3245.28 643.75C3245.28 653.917 3247.53 663.25 3252.03 671.75C3256.69 680.083 3262.86 686.75 3270.53 691.75C3278.19 696.75 3286.69 699.25 3296.03 699.25C3305.36 699.25 3313.86 696.75 3321.53 691.75C3329.36 686.583 3335.53 679.75 3340.03 671.25C3344.69 662.583 3347.03 653.167 3347.03 643C3347.03 632.833 3344.69 623.5 3340.03 615C3335.53 606.5 3329.36 599.75 3321.53 594.75C3313.86 589.583 3305.44 587 3296.28 587C3286.94 587 3278.44 589.583 3270.78 594.75C3263.11 599.917 3256.94 606.75 3252.28 615.25C3247.61 623.75 3245.28 633.25 3245.28 643.75ZM3453.23 710.5C3442.06 710.5 3432.06 707.583 3423.23 701.75C3414.56 695.75 3407.56 688.5 3402.23 680V761.25H3389.73V578H3401.23V604C3406.56 595.667 3413.64 588.917 3422.48 583.75C3431.31 578.417 3440.64 575.75 3450.48 575.75C3459.64 575.75 3467.98 577.667 3475.48 581.5C3482.98 585.167 3489.48 590.25 3494.98 596.75C3500.64 603.083 3504.98 610.25 3507.98 618.25C3511.14 626.25 3512.73 634.583 3512.73 643.25C3512.73 655.25 3510.23 666.417 3505.23 676.75C3500.23 686.917 3493.23 695.083 3484.23 701.25C3475.39 707.417 3465.06 710.5 3453.23 710.5ZM3450.23 699.25C3457.89 699.25 3464.73 697.667 3470.73 694.5C3476.89 691.333 3482.14 687.083 3486.48 681.75C3490.81 676.417 3494.14 670.417 3496.48 663.75C3498.81 657.083 3499.98 650.25 3499.98 643.25C3499.98 635.75 3498.64 628.667 3495.98 622C3493.31 615.167 3489.56 609.167 3484.73 604C3480.06 598.833 3474.56 594.75 3468.23 591.75C3462.06 588.583 3455.31 587 3447.98 587C3443.48 587 3438.64 587.917 3433.48 589.75C3428.48 591.583 3423.64 594.167 3418.98 597.5C3414.48 600.833 3410.73 604.667 3407.73 609C3404.73 613.167 3402.89 617.5 3402.23 622V664.75C3405.23 671.083 3409.06 676.917 3413.73 682.25C3418.56 687.417 3424.14 691.583 3430.48 694.75C3436.81 697.75 3443.39 699.25 3450.23 699.25ZM3598.05 710.5C3588.89 710.5 3580.39 708.75 3572.55 705.25C3564.72 701.583 3557.89 696.667 3552.05 690.5C3546.39 684.167 3541.89 676.917 3538.55 668.75C3535.39 660.417 3533.8 651.667 3533.8 642.5C3533.8 630.167 3536.55 619 3542.05 609C3547.55 599 3555.14 591 3564.8 585C3574.47 578.833 3585.3 575.75 3597.3 575.75C3609.64 575.75 3620.55 578.833 3630.05 585C3639.55 591.167 3647.05 599.333 3652.55 609.5C3658.22 619.5 3661.05 630.5 3661.05 642.5C3661.05 643.5 3661.05 644.5 3661.05 645.5C3661.05 646.5 3660.97 647.333 3660.8 648H3546.8C3547.47 657.833 3550.22 666.75 3555.05 674.75C3559.89 682.75 3566.05 689.083 3573.55 693.75C3581.22 698.25 3589.55 700.5 3598.55 700.5C3607.55 700.5 3616.05 698.167 3624.05 693.5C3632.05 688.833 3637.64 682.833 3640.8 675.5L3651.8 678.5C3649.3 684.667 3645.3 690.167 3639.8 695C3634.47 699.833 3628.14 703.667 3620.8 706.5C3613.64 709.167 3606.05 710.5 3598.05 710.5ZM3546.3 638.25H3649.05C3648.39 628.083 3645.72 619.083 3641.05 611.25C3636.39 603.417 3630.22 597.25 3622.55 592.75C3615.05 588.25 3606.72 586 3597.55 586C3588.39 586 3580.05 588.25 3572.55 592.75C3565.05 597.25 3558.97 603.417 3554.3 611.25C3549.64 619.083 3546.97 628.083 3546.3 638.25ZM3750.05 589.25C3738.39 589.583 3728.14 593.083 3719.3 599.75C3710.64 606.25 3704.55 615.25 3701.05 626.75V708H3688.55V578H3700.55V610C3705.05 600.833 3711.05 593.417 3718.55 587.75C3726.05 581.917 3733.97 578.583 3742.3 577.75C3743.97 577.583 3745.47 577.5 3746.8 577.5C3748.14 577.5 3749.22 577.5 3750.05 577.5V589.25Z" fill="black"/>
</svg>
