<svg width="64" height="54" viewBox="0 0 64 54" fill="none" xmlns="http://www.w3.org/2000/svg">
<path d="M59.5518 1.20221L2.39716 23.2629C2.36316 23.276 2.33019 23.2916 2.29855 23.3097C1.83508 23.5715 -1.39934 25.5449 3.16139 27.3141L3.20823 27.3313L16.8177 31.7169C16.9215 31.7505 17.0315 31.7612 17.1399 31.748C17.2482 31.7348 17.3524 31.6982 17.4451 31.6407L51.2007 10.6336C51.2835 10.5821 51.3756 10.5474 51.4719 10.5316C51.9415 10.4541 53.2937 10.309 52.4383 11.3922C51.4707 12.6217 28.4143 33.2304 25.8554 35.516C25.7078 35.6482 25.6165 35.8316 25.6002 36.0287L24.4834 49.3072C24.4833 49.4424 24.5147 49.5759 24.5753 49.6969C24.6358 49.8179 24.7238 49.9231 24.8323 50.0043C24.9861 50.101 25.1671 50.1458 25.3484 50.132C25.5297 50.1183 25.7019 50.0468 25.8393 49.9281L33.9254 42.7196C34.0531 42.6058 34.2161 42.5389 34.3872 42.5302C34.5582 42.5215 34.7272 42.5714 34.8659 42.6716L48.9733 52.8887L49.019 52.9194C49.3604 53.1297 53.0484 55.2702 54.1134 50.49L63.8512 4.30421C63.8648 4.1579 63.9966 2.54973 62.8441 1.59933C61.6337 0.605908 59.9203 1.10754 59.6627 1.16164C59.6247 1.17219 59.5876 1.18576 59.5518 1.20221Z" fill="black"/>
</svg>
