<svg width="258" height="432" viewBox="0 0 258 432" fill="none" xmlns="http://www.w3.org/2000/svg">
<path d="M37 276.6C37 265 37.8 254 39.4 243.6C41.4 233.2 45.8 223.4 52.6 214.2C59.4 204.6 70 196 84.4 188.4C88.8 186 95 182.8 103 178.8C111.4 174.8 119.8 170 128.2 164.4C136.6 158.8 143.6 152.6 149.2 145.8C155.2 138.6 158.2 130.8 158.2 122.4C158.2 116.4 156.4 111.2 152.8 106.8C149.6 102 145.2 98.4 139.6 96C134.4 93.6 128.6 92.4 122.2 92.4C112.6 92.4 104.6 94.8 98.2 99.6C92.2 104 87.2 109.2 83.2 115.2C79.6 120.8 76.2 125.6 73 129.6L0.400001 78C7.2 61.6 16.8 47.8 29.2 36.6C41.6 25 56 16.2 72.4 10.2C89.2 3.79998 107.2 0.599975 126.4 0.599975C141.6 0.599975 156.8 2.79998 172 7.2C187.6 11.6 201.8 18.6 214.6 28.2C227.4 37.8 237.6 50.4 245.2 66C253.2 81.6 257.2 100.6 257.2 123C257.2 132.6 256.4 141.8 254.8 150.6C253.2 159.4 250.4 167.8 246.4 175.8C242.8 183.4 237.8 190.8 231.4 198C225.4 204.8 218 211.2 209.2 217.2C197.6 225.2 185.6 232 173.2 237.6C161.2 243.2 151 249 142.6 255C134.2 260.6 130 267.8 130 276.6H37ZM38.8 432V333.6H131.8V432H38.8Z" fill="#414043"/>
</svg>
