<svg width="77" height="47" viewBox="0 0 77 47" fill="none" xmlns="http://www.w3.org/2000/svg">
<path d="M74.4612 3.15156C74.9892 1.33159 74.4613 -0.00292969 71.9416 -0.00292969H63.6146C61.4788 -0.00292969 60.5189 1.15164 59.991 2.41966C59.991 2.41966 55.7434 13.0609 49.7441 19.9606C47.8003 21.9682 46.9124 22.6022 45.8565 22.6022C45.3286 22.6022 44.5607 21.9682 44.5607 20.1485V3.15156C44.5607 0.967497 43.9607 -0.00292969 42.1849 -0.00292969H29.1065C27.7866 -0.00292969 26.9707 1.00679 26.9707 1.96955C26.9707 4.03595 29.9704 4.5135 30.2823 10.3368V22.97C30.2823 25.7371 29.8023 26.2419 28.7465 26.2419C25.9148 26.2419 19.0492 15.5616 14.972 3.33545C14.1777 0.959829 13.3762 0.00103052 11.2477 0.00103052H2.91818C0.537652 0.00103052 0.0625 1.15535 0.0625 2.42337C0.0625 4.70135 2.88453 15.9724 13.213 30.8797C20.0978 41.0589 29.7783 46.5772 38.6093 46.5772C43.9127 46.5772 44.5607 45.3521 44.5607 43.2388V35.5446C44.5607 33.0946 45.0646 32.6015 46.7444 32.6015C47.9683 32.6015 50.1041 33.2434 55.0475 38.1472C60.6869 43.963 61.6228 46.5732 64.7904 46.5732H73.1174C75.4931 46.5732 76.693 45.3482 75.9971 42.9296C75.2532 40.5228 72.5655 37.02 68.9899 32.8756C67.0462 30.5116 64.1185 27.9679 63.2546 26.6959C62.0067 25.0562 62.3667 24.3322 63.2546 22.8763C63.2546 22.8763 73.4054 8.1569 74.4612 3.15156Z" fill="black"/>
</svg>
