<svg width="73" height="71" viewBox="0 0 73 71" fill="none" xmlns="http://www.w3.org/2000/svg">
<path fill-rule="evenodd" clip-rule="evenodd" d="M57.0719 50.0811C56.2085 52.339 52.7783 54.4099 50.0411 54.9744C48.1693 55.3507 45.7264 55.7263 37.4975 52.3394C28.2542 48.5761 15.4201 35.4045 15.4201 26.5609C15.4201 22.045 18.0837 16.7761 22.7431 16.7761C24.9847 16.7761 25.4783 16.7769 26.2158 18.4703C27.0792 20.5401 29.1853 25.6205 29.435 25.9968C30.4706 28.2547 28.3839 29.3833 26.8682 31.2649C26.3843 31.8294 25.8364 32.395 26.4501 33.3358C27.0579 34.4648 29.164 37.6631 32.2574 40.4856C36.2547 43.8725 39.4951 45.0007 40.6546 45.377C41.518 45.7533 42.5498 45.753 43.1809 45.0003C43.9784 44.2477 44.9714 42.9317 45.9799 41.4264C46.6942 40.4856 47.6002 40.2967 48.5487 40.673C49.1894 40.8612 57.3371 44.6251 57.6797 45.1896C57.9352 45.5659 57.9352 47.635 57.0719 50.0811ZM36.2334 0.97168H36.2141C16.4712 0.97168 0.414062 16.5891 0.414062 35.7815C0.414062 43.308 2.9383 50.4577 7.23182 56.1026L2.7699 69.0865L16.5331 64.7573C22.1952 68.3323 28.953 70.5914 36.2334 70.5914C55.9762 70.5914 72.0372 54.7858 72.0372 35.7815C72.0372 16.5891 55.9762 0.97168 36.2334 0.97168Z" fill="black"/>
</svg>
